HIERARCHY
ROOT Hips
{
  OFFSET 126.96 91.9987 35.2002
  CHANNELS 6 Xposition Yposition Zposition Zrotation Xrotation Yrotation
  JOINT RightUpLeg
  {
    OFFSET -9.21262 -1.62705 0.0892923
    CHANNELS 3 Zrotation Xrotation Yrotation
    JOINT RightLeg
    {
      OFFSET 0.0960154 -41.8606 0.153467
      CHANNELS 3 Zrotation Xrotation Yrotation
      JOINT RightFoot
      {
        OFFSET 1.33859 -39.7491 3.70458
        CHANNELS 3 Zrotation Xrotation Yrotation
        End Site
        {
          OFFSET 0 -7.69 17.5
        }
      }
    }
  }
  JOINT LeftUpLeg
  {
    OFFSET 9.28909 -1.62806 0.0108209
    CHANNELS 3 Zrotation Xrotation Yrotation
    JOINT LeftLeg
    {
      OFFSET 0.0929201 -41.8886 0.0218006
      CHANNELS 3 Zrotation Xrotation Yrotation
      JOINT LeftFoot
      {
        OFFSET -1.57781 -41.3397 -3.31563
        CHANNELS 3 Zrotation Xrotation Yrotation
        End Site
        {
          OFFSET 0 -7.69 17.5
        }
      }
    }
  }
  JOINT Spine
  {
    OFFSET 0.0128959 14.3037 0.0259321
    CHANNELS 3 Zrotation Xrotation Yrotation
    JOINT Spine1
    {
      OFFSET 0.0143034 9.71252 0.015398
      CHANNELS 3 Zrotation Xrotation Yrotation
      JOINT Spine2
      {
        OFFSET 0.0468817 10.117 -0.0314137
        CHANNELS 3 Zrotation Xrotation Yrotation
        JOINT Spine3
        {
          OFFSET 0.0102655 9.71178 0.00221616
          CHANNELS 3 Zrotation Xrotation Yrotation
          JOINT Neck
          {
            OFFSET -0.0402596 10.3794 0.0231037
            CHANNELS 3 Zrotation Xrotation Yrotation
            JOINT Head
            {
              OFFSET -0.03453 9.49168 0.0708427
              CHANNELS 3 Zrotation Xrotation Yrotation
              End Site
              {
                OFFSET 0 15.95 0
              }
            }
          }
          JOINT RightShoulder
          {
            OFFSET -3.17991 6.93495 0.0309862
            CHANNELS 3 Zrotation Xrotation Yrotation
            JOINT RightArm
            {
              OFFSET -12.8253 0.0342167 0.035901
              CHANNELS 3 Zrotation Xrotation Yrotation
              JOINT RightForeArm
              {
                OFFSET -26.4423 -0.000685918 0.00421057
                CHANNELS 3 Zrotation Xrotation Yrotation
                JOINT RightHand
                {
                  OFFSET -25.9842 -0.0662606 -0.0268032
                  CHANNELS 3 Zrotation Xrotation Yrotation
                  JOINT RightHandThumb1
                  {
                    OFFSET -2.48905 0.190105 3.12053
                    CHANNELS 3 Zrotation Xrotation Yrotation
                    JOINT RightHandThumb2
                    {
                      OFFSET -3.68274 0 0
                      CHANNELS 3 Zrotation Xrotation Yrotation
                      JOINT RightHandThumb3
                      {
                        OFFSET -2.55832 0 0
                        CHANNELS 3 Zrotation Xrotation Yrotation
                        End Site
                        {
                          OFFSET -2.194 0 0
                        }
                      }
                    }
                  }
                  JOINT RightInHandIndex
                  {
                    OFFSET -3.22368 0.508421 1.97842
                    CHANNELS 3 Zrotation Xrotation Yrotation
                    JOINT RightHandIndex1
                    {
                      OFFSET -5.21684 -0.091368 0.999158
                      CHANNELS 3 Zrotation Xrotation Yrotation
                      JOINT RightHandIndex2
                      {
                        OFFSET -3.61937 0 0
                        CHANNELS 3 Zrotation Xrotation Yrotation
                        JOINT RightHandIndex3
                        {
                          OFFSET -2.0521 0 0
                          CHANNELS 3 Zrotation Xrotation Yrotation
                          End Site
                          {
                            OFFSET -1.805 0 0
                          }
                        }
                      }
                    }
                  }
                  JOINT RightInHandMiddle
                  {
                    OFFSET -3.38211 0.517263 0.756737
                    CHANNELS 3 Zrotation Xrotation Yrotation
                    JOINT RightHandMiddle1
                    {
                      OFFSET -5.17411 -0.084 0.313895
                      CHANNELS 3 Zrotation Xrotation Yrotation
                      JOINT RightHandMiddle2
                      {
                        OFFSET -3.94947 0 0
                        CHANNELS 3 Zrotation Xrotation Yrotation
                        JOINT RightHandMiddle3
                        {
                          OFFSET -2.47579 0 0
                          CHANNELS 3 Zrotation Xrotation Yrotation
                          End Site
                          {
                            OFFSET -1.975 0 0
                          }
                        }
                      }
                    }
                  }
                  JOINT RightInHandRing
                  {
                    OFFSET -3.36516 0.537895 -0.128947
                    CHANNELS 3 Zrotation Xrotation Yrotation
                    JOINT RightHandRing1
                    {
                      OFFSET -4.63474 -0.022105 -0.478947
                      CHANNELS 3 Zrotation Xrotation Yrotation
                      JOINT RightHandRing2
                      {
                        OFFSET -3.44238 0 0
                        CHANNELS 3 Zrotation Xrotation Yrotation
                        JOINT RightHandRing3
                        {
                          OFFSET -2.3881 0 0
                          CHANNELS 3 Zrotation Xrotation Yrotation
                          End Site
                          {
                            OFFSET -1.857 0 0
                          }
                        }
                      }
                    }
                  }
                  JOINT RightInHandPinky
                  {
                    OFFSET -3.16105 0.469368 -1.20179
                    CHANNELS 3 Zrotation Xrotation Yrotation
                    JOINT RightHandPinky1
                    {
                      OFFSET -4.14105 -0.022105 -1.09053
                      CHANNELS 3 Zrotation Xrotation Yrotation
                      JOINT RightHandPinky2
                      {
                        OFFSET -2.75653 0 0
                        CHANNELS 3 Zrotation Xrotation Yrotation
                        JOINT RightHandPinky3
                        {
                          OFFSET -1.74189 0 0
                          CHANNELS 3 Zrotation Xrotation Yrotation
                          End Site
                          {
                            OFFSET -1.645 0 0
                          }
                        }
                      }
                    }
                  }
                }
              }
            }
          }
          JOINT LeftShoulder
          {
            OFFSET 3.21113 6.90952 -0.0469957
            CHANNELS 3 Zrotation Xrotation Yrotation
            JOINT LeftArm
            {
              OFFSET 12.7919 -0.0331125 -0.0859637
              CHANNELS 3 Zrotation Xrotation Yrotation
              JOINT LeftForeArm
              {
                OFFSET 26.4755 -0.0026531 -0.0242133
                CHANNELS 3 Zrotation Xrotation Yrotation
                JOINT LeftHand
                {
                  OFFSET 25.9936 -0.03295 -0.105102
                  CHANNELS 3 Zrotation Xrotation Yrotation
                  JOINT LeftHandThumb1
                  {
                    OFFSET 2.48905 0.190105 3.12053
                    CHANNELS 3 Zrotation Xrotation Yrotation
                    JOINT LeftHandThumb2
                    {
                      OFFSET 3.68274 0 0
                      CHANNELS 3 Zrotation Xrotation Yrotation
                      JOINT LeftHandThumb3
                      {
                        OFFSET 2.55832 0 0
                        CHANNELS 3 Zrotation Xrotation Yrotation
                        End Site
                        {
                          OFFSET 2.194 0 0
                        }
                      }
                    }
                  }
                  JOINT LeftInHandIndex
                  {
                    OFFSET 3.22368 0.508421 1.97842
                    CHANNELS 3 Zrotation Xrotation Yrotation
                    JOINT LeftHandIndex1
                    {
                      OFFSET 5.21684 -0.091368 0.999158
                      CHANNELS 3 Zrotation Xrotation Yrotation
                      JOINT LeftHandIndex2
                      {
                        OFFSET 3.61937 0 0
                        CHANNELS 3 Zrotation Xrotation Yrotation
                        JOINT LeftHandIndex3
                        {
                          OFFSET 2.0521 0 0
                          CHANNELS 3 Zrotation Xrotation Yrotation
                          End Site
                          {
                            OFFSET 1.805 0 0
                          }
                        }
                      }
                    }
                  }
                  JOINT LeftInHandMiddle
                  {
                    OFFSET 3.38211 0.517263 0.756737
                    CHANNELS 3 Zrotation Xrotation Yrotation
                    JOINT LeftHandMiddle1
                    {
                      OFFSET 5.17411 -0.084 0.313895
                      CHANNELS 3 Zrotation Xrotation Yrotation
                      JOINT LeftHandMiddle2
                      {
                        OFFSET 3.94947 0 0
                        CHANNELS 3 Zrotation Xrotation Yrotation
                        JOINT LeftHandMiddle3
                        {
                          OFFSET 2.47579 0 0
                          CHANNELS 3 Zrotation Xrotation Yrotation
                          End Site
                          {
                            OFFSET 1.975 0 0
                          }
                        }
                      }
                    }
                  }
                  JOINT LeftInHandRing
                  {
                    OFFSET 3.36516 0.537895 -0.128947
                    CHANNELS 3 Zrotation Xrotation Yrotation
                    JOINT LeftHandRing1
                    {
                      OFFSET 4.63474 -0.022105 -0.478947
                      CHANNELS 3 Zrotation Xrotation Yrotation
                      JOINT LeftHandRing2
                      {
                        OFFSET 3.44238 0 0
                        CHANNELS 3 Zrotation Xrotation Yrotation
                        JOINT LeftHandRing3
                        {
                          OFFSET 2.3881 0 0
                          CHANNELS 3 Zrotation Xrotation Yrotation
                          End Site
                          {
                            OFFSET 1.857 0 0
                          }
                        }
                      }
                    }
                  }
                  JOINT LeftInHandPinky
                  {
                    OFFSET 3.16105 0.469368 -1.20179
                    CHANNELS 3 Zrotation Xrotation Yrotation
                    JOINT LeftHandPinky1
                    {
                      OFFSET 4.14105 -0.022105 -1.09053
                      CHANNELS 3 Zrotation Xrotation Yrotation
                      JOINT LeftHandPinky2
                      {
                        OFFSET 2.75653 0 0
                        CHANNELS 3 Zrotation Xrotation Yrotation
                        JOINT LeftHandPinky3
                        {
                          OFFSET 1.74189 0 0
                          CHANNELS 3 Zrotation Xrotation Yrotation
                          End Site
                          {
                            OFFSET 1.645 0 0
                          }
                        }
                      }
                    }
                  }
                }
              }
            }
          }
        }
      }
    }
  }
}
MOTION
Frames: 3
Frame Time: 0.00833333
7.528688595336634535e+02 2.257477124018226755e-01 1.626086388310492570e+00 1.011229061961628872e+01 1.157518223914021593e+00 1.586819710074080092e+01 -2.090751374859550538e+01 -1.812356570854196391e+01 -2.416386907974823473e+01 4.393810394216531634e+00 2.953371533911366420e+00 -4.635383928110790919e+00 5.863311804238975355e-01 -1.150706241386881246e+01 -5.225504517688570161e+00 5.025421281643970062e+00 -2.009543595774577440e+01 2.039926135520622630e+00 4.187596466271040541e+00 -2.614614961763147782e+00 -6.204399514183407405e+00 3.595889452662960117e+00 5.658521967602999858e+00 -1.337663592962847758e+00 1.485064850818978988e+00 9.169177216370027139e+00 9.355207411172219878e+00 5.747464183146006045e-01 2.732751643115371998e+00 2.220979497977783712e+00 9.295556861136176074e-01 4.259078995853943894e+00 3.680879457054472947e+00 3.456505028010251057e-01 3.691808618594852320e-01 -1.309489796526808192e+00 2.204779316233501429e+00 1.421142844407629058e+00 -1.653934597067963352e+01 5.176077242726034200e+00 7.167606793189531533e-01 -1.536270291286972700e+01 2.304248388825374860e+00 6.297907537219553653e-01 9.727807556279370882e-01 5.982840176861156323e+00 1.948302615363829871e+00 5.965671591251511074e+01 -5.333482476694065610e+00 -1.213074902327767646e+01 2.134709478941228511e+01 8.070429693892640088e+00 -2.128567233616618282e+01 2.756067054692000085e+00 0.000000000000000000e+00 0.000000000000000000e+00 0.000000000000000000e+00 -1.034162684944215914e-14 -1.173877714857774368e-15 0.000000000000000000e+00 4.009900283729095271e-15 -7.949435857078329598e-16 0.000000000000000000e+00 3.743415816741843887e-15 5.787925972164620022e-16 -5.029681022534561109e-15 0.000000000000000000e+00 0.000000000000000000e+00 0.000000000000000000e+00 0.000000000000000000e+00 1.520853624927295808e-15 -1.276460718971627619e-14 0.000000000000000000e+00 -1.593347224845415067e-15 -1.112039355011443550e-15 3.743415816741843887e-15 5.787925972164620022e-16 -5.029681022534561109e-15 0.000000000000000000e+00 6.623226825045638487e-16 -6.410829993287271041e-15 0.000000000000000000e+00 -3.859876914984922976e-15 -4.511586642850999543e-15 0.000000000000000000e+00 -1.114689932711924511e-15 -2.657738956132481086e-15 3.743415816741843887e-15 5.787925972164620022e-16 -5.029681022534561109e-15 0.000000000000000000e+00 0.000000000000000000e+00 0.000000000000000000e+00 0.000000000000000000e+00 -1.365887871116297723e-15 -7.629712190088968800e-15 0.000000000000000000e+00 9.835704069290061589e-16 4.496431548214146800e-16 3.743415816741843887e-15 5.787925972164620022e-16 -5.029681022534561109e-15 0.000000000000000000e+00 0.000000000000000000e+00 0.000000000000000000e+00 0.000000000000000000e+00 1.149511994066072951e-15 5.946282427204211887e-15 0.000000000000000000e+00 1.704600500644887418e-16 -5.755621606436768874e-15 -2.562600450137427988e+00 6.051097267604870211e+00 -1.202177193836048819e+00 -2.288597803931519081e+01 1.484547011846425946e+01 3.528383160188687384e+01 -1.784244601321455015e+00 -3.369268529654344491e+01 4.025799555607036950e+01 2.101693918153482343e+01 6.433819455113015806e+01 5.293628980769604198e+01 0.000000000000000000e+00 0.000000000000000000e+00 0.000000000000000000e+00 7.649265884540666510e-15 -5.292333448555919040e-15 0.000000000000000000e+00 -5.874134083153059600e-15 -6.813640288268978814e-15 0.000000000000000000e+00 -1.022678977777234980e-15 -3.632644093460029769e-15 -2.439553493546153937e-15 0.000000000000000000e+00 0.000000000000000000e+00 0.000000000000000000e+00 0.000000000000000000e+00 -6.023075327801284615e-15 6.748396543296835891e-16 0.000000000000000000e+00 1.316722112343133274e-15 -2.491230254471135035e-15 -1.022678977777234980e-15 -3.632644093460029769e-15 -2.439553493546153937e-15 0.000000000000000000e+00 -9.109781194804234771e-17 4.169805509814226242e-15 0.000000000000000000e+00 -3.718648986387853220e-15 1.110719736910420032e-15 0.000000000000000000e+00 4.946746053688417462e-16 4.170895659283699294e-15 -1.022678977777234980e-15 -3.632644093460029769e-15 -2.439553493546153937e-15 0.000000000000000000e+00 0.000000000000000000e+00 0.000000000000000000e+00 0.000000000000000000e+00 -1.880914445934775735e-15 8.032184340449382011e-15 0.000000000000000000e+00 -2.453560801354014889e-16 1.095272436423595766e-14 -1.022678977777234980e-15 -3.632644093460029769e-15 -2.439553493546153937e-15 0.000000000000000000e+00 0.000000000000000000e+00 0.000000000000000000e+00 0.000000000000000000e+00 -3.942547328807660236e-15 -7.689669930479996309e-17 0.000000000000000000e+00 -5.371510814668639215e-15 4.484298974125942219e-15
7.528834682386952863e+02 2.289183791562858505e-01 1.675207104074468933e+00 1.020889489092850155e+01 1.126506646849845250e+00 1.600601762891151125e+01 -2.091367281806204304e+01 -1.827697880330476110e+01 -2.419851631865167008e+01 4.410191989090134435e+00 2.957965153413148141e+00 -4.655596397054825530e+00 5.919764411106246405e-01 -1.144193889623966776e+01 -5.261978345204440188e+00 5.140231350448667413e+00 -2.023463271046862033e+01 2.129417752473836689e+00 4.227191627622380210e+00 -2.629664399700063271e+00 -6.267661615673572939e+00 3.623729025154630357e+00 5.704716935174994674e+00 -1.395031832555284623e+00 1.514482235975752156e+00 9.215398267173949165e+00 9.413720657222214072e+00 5.813924194259918465e-01 2.752039120143258799e+00 2.233964865198620142e+00 9.401279255042586103e-01 4.293943031675954813e+00 3.701610754668554826e+00 3.444236509857535600e-01 3.702361044673959101e-01 -1.317135737154834230e+00 2.222426274096304777e+00 1.436530052493233178e+00 -1.677723858275600577e+01 5.136228308344360727e+00 6.623574742632034607e-01 -1.537285134692547928e+01 2.325648848312986239e+00 6.331455983612128691e-01 9.246556143451047927e-01 6.225318062953347997e+00 2.137020691731596589e+00 6.007746178883881782e+01 -5.516292921181871201e+00 -1.255809160543414649e+01 2.346986567891541853e+01 8.111901494080447250e+00 -2.145723802903212274e+01 2.796551707645316576e+00 0.000000000000000000e+00 0.000000000000000000e+00 0.000000000000000000e+00 -1.039376500584212656e-14 -1.190468163031142938e-15 0.000000000000000000e+00 3.996161344024735592e-15 -8.548965040064480169e-16 0.000000000000000000e+00 3.790027909674606866e-15 5.536916691495628068e-16 -5.061627140070983177e-15 0.000000000000000000e+00 0.000000000000000000e+00 0.000000000000000000e+00 0.000000000000000000e+00 1.520235137665480649e-15 -1.281098536672334039e-14 0.000000000000000000e+00 -1.590942914949021876e-15 -1.129625904820895960e-15 3.790027909674606866e-15 5.536916691495628068e-16 -5.061627140070983177e-15 0.000000000000000000e+00 6.764171417190914796e-16 -6.440755394471987984e-15 0.000000000000000000e+00 -3.853390585014970192e-15 -4.517040861463098324e-15 0.000000000000000000e+00 -1.084105603118019056e-15 -2.716261807359563584e-15 3.790027909674606866e-15 5.536916691495628068e-16 -5.061627140070983177e-15 0.000000000000000000e+00 0.000000000000000000e+00 0.000000000000000000e+00 0.000000000000000000e+00 -1.344874096611434326e-15 -7.649887555978785275e-15 0.000000000000000000e+00 9.906183923628494375e-16 4.980402344840607699e-16 3.790027909674606866e-15 5.536916691495628068e-16 -5.061627140070983177e-15 0.000000000000000000e+00 0.000000000000000000e+00 0.000000000000000000e+00 0.000000000000000000e+00 1.175586713269290487e-15 5.857662104450085287e-15 0.000000000000000000e+00 1.357373727641861079e-16 -5.785178817852454060e-15 -2.610082828829036750e+00 6.089539851221110744e+00 -1.242691329778522036e+00 -2.284185268203431463e+01 1.496316286952106189e+01 3.537509377960776646e+01 -1.427913150419926502e+00 -3.393007827872726523e+01 4.087225814264264301e+01 2.124734503112334139e+01 6.490483286023696508e+01 5.341773353692652648e+01 0.000000000000000000e+00 0.000000000000000000e+00 0.000000000000000000e+00 7.555477218241548544e-15 -5.247720692776036904e-15 0.000000000000000000e+00 -5.880424952995277352e-15 -6.768669230572232343e-15 0.000000000000000000e+00 -1.044880431231544847e-15 -3.561181992796084004e-15 -2.427741599784477669e-15 0.000000000000000000e+00 0.000000000000000000e+00 0.000000000000000000e+00 0.000000000000000000e+00 -5.979267449130957196e-15 6.712301192721205485e-16 0.000000000000000000e+00 1.292569745439367189e-15 -2.530127671170564252e-15 -1.044880431231544847e-15 -3.561181992796084004e-15 -2.427741599784477669e-15 0.000000000000000000e+00 -6.163012319932297896e-17 4.128774086454806523e-15 0.000000000000000000e+00 -3.703811653296078812e-15 1.069420907444189634e-15 0.000000000000000000e+00 4.602988567290428983e-16 4.149218662799192702e-15 -1.044880431231544847e-15 -3.561181992796084004e-15 -2.427741599784477669e-15 0.000000000000000000e+00 0.000000000000000000e+00 0.000000000000000000e+00 0.000000000000000000e+00 -1.877721974721749935e-15 7.981628178801518161e-15 0.000000000000000000e+00 -2.899992091614968896e-16 1.094560617212876076e-14 -1.044880431231544847e-15 -3.561181992796084004e-15 -2.427741599784477669e-15 0.000000000000000000e+00 0.000000000000000000e+00 0.000000000000000000e+00 0.000000000000000000e+00 -3.911555643653817540e-15 -1.033414151822935136e-16 0.000000000000000000e+00 -5.379621618495688936e-15 4.399584840658209277e-15
7.528965479889221797e+02 2.320040278762168784e-01 1.722971743106681775e+00 1.029745536841500808e+01 1.092870421797138780e+00 1.613084049419597932e+01 -2.089963746388445287e+01 -1.842048038699130075e+01 -2.421008361168963674e+01 4.422236159057198357e+00 2.959909135765887989e+00 -4.670406705007756898e+00 5.989820645413795885e-01 -1.137595869685798533e+01 -5.297397217934376457e+00 5.253934947828127200e+00 -2.036235513742548520e+01 2.220688256943727623e+00 4.263746438550931828e+00 -2.640533676282509568e+00 -6.326944322069643967e+00 3.649253884321635333e+00 5.745528240156628996e+00 -1.448972400190347898e+00 1.541483050031272173e+00 9.258114172559768207e+00 9.473140237681214160e+00 5.874216615470474467e-01 2.770353119419331378e+00 2.247160159704295168e+00 9.497087017078775784e-01 4.327277088679383432e+00 3.722585450428543830e+00 3.431190279058034531e-01 3.711796964961135981e-01 -1.324520410434151474e+00 2.240063246512002060e+00 1.451756500850994502e+00 -1.701303111848806182e+01 5.095507958282247785e+00 6.067059217419787931e-01 -1.537901924564341272e+01 2.340112150127204416e+00 6.364172321346013295e-01 8.706595265312491172e-01 6.475031912843704163e+00 2.334835267283815963e+00 6.047248781620820779e+01 -5.687153453692559424e+00 -1.298984891638059302e+01 2.560073637883331799e+01 8.146811326821842059e+00 -2.162047727825096644e+01 2.835545190962386108e+00 0.000000000000000000e+00 0.000000000000000000e+00 0.000000000000000000e+00 -1.038300919609368388e-14 -1.210380965091637812e-15 0.000000000000000000e+00 3.968501638980198681e-15 -9.443563773012741912e-16 0.000000000000000000e+00 3.838081237038571998e-15 5.327481467783047508e-16 -5.093249425851771562e-15 0.000000000000000000e+00 0.000000000000000000e+00 0.000000000000000000e+00 0.000000000000000000e+00 1.528964190111269555e-15 -1.278617458820979300e-14 0.000000000000000000e+00 -1.591649317276163739e-15 -1.135051646454936670e-15 3.838081237038571998e-15 5.327481467783047508e-16 -5.093249425851771562e-15 0.000000000000000000e+00 7.110351198056717128e-16 -6.443378807019077269e-15 0.000000000000000000e+00 -3.826246734091089452e-15 -4.493491317307042781e-15 0.000000000000000000e+00 -1.050831496138654734e-15 -2.744306772245169140e-15 3.838081237038571998e-15 5.327481467783047508e-16 -5.093249425851771562e-15 0.000000000000000000e+00 0.000000000000000000e+00 0.000000000000000000e+00 0.000000000000000000e+00 -1.298954930114286850e-15 -7.618504312949559855e-15 0.000000000000000000e+00 1.008133623971313559e-15 5.531129633379994333e-16 3.838081237038571998e-15 5.327481467783047508e-16 -5.093249425851771562e-15 0.000000000000000000e+00 0.000000000000000000e+00 0.000000000000000000e+00 0.000000000000000000e+00 1.220614877439742502e-15 5.781049293294349862e-15 0.000000000000000000e+00 1.146960981230029814e-16 -5.787075649098425219e-15 -2.657603250611152657e+00 6.126432630323060735e+00 -1.281946910980357401e+00 -2.279177083365548384e+01 1.507562702024737078e+01 3.545491690572553978e+01 -1.125881738977810187e+00 -3.417191557247855371e+01 4.141393609015406696e+01 2.145551755743476363e+01 6.544447476204538816e+01 5.388692831363748326e+01 0.000000000000000000e+00 0.000000000000000000e+00 0.000000000000000000e+00 7.433997874902821893e-15 -5.185338156045991992e-15 0.000000000000000000e+00 -5.844917227309740586e-15 -6.701505299761127756e-15 0.000000000000000000e+00 -1.062812454631452034e-15 -3.452349066158321890e-15 -2.401967208411997329e-15 0.000000000000000000e+00 0.000000000000000000e+00 0.000000000000000000e+00 0.000000000000000000e+00 -5.892117294450242517e-15 6.657197009962365151e-16 0.000000000000000000e+00 1.270020892894121528e-15 -2.551357337602736307e-15 -1.062812454631452034e-15 -3.452349066158321890e-15 -2.401967208411997329e-15 0.000000000000000000e+00 -2.234544803160073191e-17 4.062383067427260117e-15 0.000000000000000000e+00 -3.661325650976619928e-15 1.038207668897525458e-15 0.000000000000000000e+00 4.314836265453190533e-16 4.083347690153853121e-15 -1.062812454631452034e-15 -3.452349066158321890e-15 -2.401967208411997329e-15 0.000000000000000000e+00 0.000000000000000000e+00 0.000000000000000000e+00 0.000000000000000000e+00 -1.863125962431123274e-15 7.887725982200988995e-15 0.000000000000000000e+00 -3.552942772381654000e-16 1.090146235662612219e-14 -1.062812454631452034e-15 -3.452349066158321890e-15 -2.401967208411997329e-15 0.000000000000000000e+00 0.000000000000000000e+00 0.000000000000000000e+00 0.000000000000000000e+00 -3.849636582093442583e-15 -1.457708636196033803e-16 0.000000000000000000e+00 -5.364252302588144484e-15 4.275828180992078017e-15
